#!OML:ASF F:\VICON\USERDATA\INSTALL\rory3\rory3.ASF
:FULLY-SPECIFIED
:DEGREES
34
root 0.9437370507499547 18.08369221188078 -2.312312435827579 -4.4790258561426874 -4.390261448618024 0.10798371874666213
lfemur -9.662588282418534 -1.5578275880803198 -23.18057640713722
ltibia 27.03695085860076
lfoot -9.76345831310438 -1.371085478483992
ltoes 0.7206947326334592
rfemur -14.164452577598013 1.6015438837193017 20.95678643695101
rtibia 74.24526068352353
rfoot 5.116873897727441 -5.913164669756903
rtoes 9.961185985205805
lowerback 10.6222366574264 1.594365230391097 -0.3517417412261563
upperback 0.5316224657726524 1.928359406142441 -0.011570334864215548
thorax -5.718027659486318 0.9558344925163613 0.30939793471347776
lowerneck -15.336653565722894 -2.8707972817079037 -1.3898947368204457
upperneck 23.807491976055353 -3.5963186670014293 -0.3757266925841432
head 10.312776700256848 -1.8305257753561097 -0.4257119059966943
lclavicle -1.3868078001792788e-15 -1.8431236519597983e-15
lhumerus -34.397777359331364 9.172443389732068 80.94900242684037
lradius 17.861159171450453
lwrist 0.5323102017985955
lhand -27.795095438102106 22.975567910515515
lfingers 7.125019999999999
lthumb -1.3326027027418594 52.778683677648615
rclavicle -1.3887224984142757e-15 -1.843132486860736e-15
rhumerus -26.549599869213388 -22.349648610194414 -78.59359267387819
rradius 24.29181785225044
rwrist 5.781757203758103
rhand -17.80824723207683 21.651917725710792
rfingers 7.125019999999999
rthumb 8.57326762666168 -7.991804519728278
35
root 0.9261864458574456 18.067489972038068 -1.454864819014313 -4.761247496396536 -3.5969548409237486 0.5721939713764894
lfemur -7.510121021505023 -1.2489307352024266 -23.778341637737434
ltibia 27.53249390225436
lfoot -11.857459576051873 -1.2081217640805193
ltoes 1.2071331833885002
rfemur -18.890598765927237 0.10266607320731413 20.725552422488008
rtibia 76.3387967958495
rfoot 0.3887057260907749 -6.507252920684124
rtoes 9.52005479184285
lowerback 10.729244460687417 0.9787447144976145 -0.9698239519688767
upperback 0.7071508387867185 1.1594336204629136 0.05048198043844465
thorax -5.66478745904956 0.602172284512456 0.8060882139142719
lowerneck -15.231325289182244 -2.7591052125345876 -1.434543570112652
upperneck 24.097511816046715 -3.358169386930246 -0.4964763352647186
head 10.387712251241618 -1.7471241161421456 -0.3994792450052056
lclavicle -1.3880175304563573e-15 -1.8442472827642905e-15
lhumerus -32.74969602790624 7.7287594509136 81.01863646718559
lradius 18.728728351786224
lwrist 1.038043501836584
lhand -27.74222330076044 23.01706162724855
lfingers 7.125019999999999
lthumb -1.532886326114632 52.56291252627687
rclavicle -1.3881503026254094e-15 -1.8428590653598656e-15
rhumerus -27.50673274478519 -23.781374440666493 -78.07868324360763
rradius 23.684555412785045
rwrist 7.102644270508678
rhand -17.59071533061069 21.821160251248763
rfingers 7.125019999999999
rthumb 8.69114199584146 -8.038290988124501
36
root 0.9058279869571995 18.056394405429707 -0.42001928955056833 -4.875020702107012 -2.2182685501610138 0.7423409518562427
lfemur -5.658596955395259 -1.6298737822020275 -23.95623314204148
ltibia 27.992448185905502
lfoot -13.479673911606413 -1.2116062624878239
ltoes 1.09425332394675
rfemur -22.831659401419806 -1.4958689382476411 21.065302216685872
rtibia 74.9783447667112
rfoot -3.647629779281371 -5.566910710644258
rtoes 9.499684410167212
lowerback 10.930834508826276 0.18885007696658213 -1.2684363361554625
upperback 0.8398702027530082 0.18902025092307906 0.3011393209515072
thorax -5.6463747614201285 0.1283642023005587 1.2764233702886676
lowerneck -15.099416892157398 -2.7130935448655187 -1.525755940155929
upperneck 24.28853210637715 -3.2262397717439715 -0.6055190264570032
head 10.389229914320438 -1.7106052471470656 -0.3873012938519585
lclavicle -1.3879934675610526e-15 -1.8442252188999533e-15
lhumerus -30.799309336088083 5.6433213685533925 81.21119430410333
lradius 19.555823227212183
lwrist 1.7764787724295579
lhand -27.84603593891948 23.068833620158536
lfingers 7.125019999999999
lthumb -1.4814479752731002 52.6795602126762
rclavicle -1.3881762239580614e-15 -1.8427188977092464e-15
rhumerus -28.55190156086923 -24.161635607359777 -77.95100417591496
rradius 23.737716902742953
rwrist 5.992778291299972
rhand -17.454331365089658 22.22418059495538
rfingers 7.125019999999999
rthumb 8.814623143625818 -7.778587534750166
37
root 0.8844204773872879 17.99357866166317 0.44544436958218014 -4.871006639864173 -1.320957451109005 1.2208820049326916
lfemur -4.087763310441927 -2.0936805057882415 -24.571050994403645
ltibia 28.44169800043532
lfoot -15.893136179864744 -0.850729251877107
ltoes 1.817804740846515
rfemur -26.495371168465255 -2.428645026787648 21.161089258173195
rtibia 71.27754553470895
rfoot -7.866397925709016 -5.137446077146489
rtoes 6.518851212415848
lowerback 11.211084178904729 -0.27995066772094374 -1.9671304675180563
upperback 0.9200912121383165 -0.47456686252663327 0.4361606060777372
thorax -5.713982945494618 -0.17621365847092246 1.9126432997576042
lowerneck -15.04644515162947 -2.7583381241102 -1.699602732889953
upperneck 24.382371191315514 -3.261662082329876 -0.6099546774905201
head 10.36617126759532 -1.7361453576593857 -0.363867839197917
lclavicle -1.3870461588054382e-15 -1.843345157265042e-15
lhumerus -28.856341666179304 3.3816695605961242 81.418300728535
lradius 20.93190732385932
lwrist 3.11753044466127
lhand -27.92463518324707 22.7957131027889
lfingers 7.125019999999999
lthumb -1.381647081073392 52.69591629723445
rclavicle -1.3902103536180582e-15 -1.8443791026204582e-15
rhumerus -29.862005723480035 -23.365561131123805 -77.99163086944712
rradius 24.582117103377918
rwrist 3.8925346237169416
rhand -17.39163909833554 22.2651064831402
rfingers 7.125019999999999
rthumb 8.816306647265003 -7.576051599249405
38
root 0.8486555934185155 17.941666749746744 1.0774097511408725 -4.633689293594423 -0.2720166045134469 1.3320822572010633
lfemur -2.1967861944895954 -2.440709811308214 -24.717809224622613
ltibia 27.978018264082944
lfoot -17.985522252249687 -0.5725317751506789
ltoes 2.2627056192520745
rfemur -29.071054542422537 -3.2656954790232513 21.640015803222454
rtibia 64.78319795056015
rfoot -10.272554194001376 -6.179717803251348
rtoes 1.84310937752353
lowerback 11.415710657861183 -0.7537666550468352 -2.3432259399299245
upperback 1.0104544351397957 -1.1038445864763737 0.6973153578036809
thorax -5.7341723972941185 -0.4655624254490685 2.4629675863692437
lowerneck -15.149455631148482 -2.7947322294976407 -1.8047318233472316
upperneck 24.260194305442162 -3.298946152006097 -0.5756760430251806
head 10.326822108507283 -1.7495234265768882 -0.3375739666033103
lclavicle -1.3868355466286872e-15 -1.84314907430507e-15
lhumerus -26.79931739143709 1.5631102537517063 81.31608571186788
lradius 22.187576514296005
lwrist 4.230389797947199
lhand -27.36987176521682 23.220205595036404
lfingers 7.125019999999999
lthumb -0.967464833314732 53.248251400987165
rclavicle -1.3935534660912482e-15 -1.847613999658908e-15
rhumerus -30.916970335903518 -22.467241837067935 -78.06159498725937
rradius 25.316201541943403
rwrist 2.249474829978981
rhand -17.60949090445301 22.325782870913653
rfingers 7.125019999999999
rthumb 8.713604957561257 -7.426403020614131
39
root 0.8113892110190002 17.914443448500574 1.5947466726358845 -4.298915027693084 0.045533306315700184 1.5954864653401541
lfemur 0.01497236839985483 -2.3508238546066202 -25.0907881093638
ltibia 26.26090893516828
lfoot -18.52439786139531 -0.39173918892600335
ltoes 2.8929081483037913
rfemur -30.424228469825245 -2.970103719384369 21.710998920177396
rtibia 55.36764151786284
rfoot -10.338107689514361 -8.23986230329556
rtoes 1.3928626578773637
lowerback 11.26890334873643 -0.8924113084332888 -2.8842719789173965
upperback 1.1158289161544266 -1.3532988487983675 0.8031618745821674
thorax -5.541209812545863 -0.5710558541450506 2.9099553944017775
lowerneck -15.18757704818137 -2.8639709391005486 -1.9283788543780414
upperneck 24.17784549969459 -3.406523356510973 -0.44967937504771666
head 10.331261791580522 -1.78183407129344 -0.29468282506425447
lclavicle -1.3863420718595713e-15 -1.8426901855602044e-15
lhumerus -24.874204269009304 0.2398692007419978 81.00685110663106
lradius 23.680753185967877
lwrist 5.622446510695777
lhand -27.962704430771044 22.76016124219303
lfingers 7.125019999999999
lthumb -1.4325207737904493 52.85305516432306
rclavicle -1.391970691395429e-15 -1.846072720992405e-15
rhumerus -31.852009884547847 -22.13882064511003 -77.54680497700927
rradius 25.357486113769877
rwrist 1.9573174863722196
rhand -17.652403391331287 22.52418388074167
rfingers 7.125019999999999
rthumb 8.62047577741961 -7.335482331634903
40
root 0.7671106431850689 17.907521423464434 2.2124411927518794 -3.6309513526255253 0.17351268646712947 1.4995007132844798
lfemur 2.596499661575379 -2.075462713311737 -24.897173435095624
ltibia 23.229800190910122
lfoot -18.518299234466316 -0.5101267739949462
ltoes 1.8554646911376182
rfemur -30.50158271070741 -1.4581959599365746 21.501602365428326
rtibia 43.293654793294884
rfoot -8.342558788399737 -10.409920591975384
rtoes 1.1473045803861717
lowerback 10.820335057455221 -1.0140713137506554 -3.0691812470598356
upperback 1.051918134963737 -1.5269653171767037 0.9707170927092954
thorax -5.347115593305131 -0.6449595671746433 3.094900341507874
lowerneck -15.371689848291377 -2.8980464290533106 -1.9445388700905994
upperneck 24.13205365330402 -3.4728557381192515 -0.31791832281288424
head 10.346673245031566 -1.7997450811493207 -0.26228119895529356
lclavicle -1.385544593129058e-15 -1.841949046221869e-15
lhumerus -23.242464181921562 -0.9748069105502308 80.61551053381392
lradius 25.319506975822417
lwrist 5.884842396840883
lhand -27.590571394060376 24.09367473454652
lfingers 7.125019999999999
lthumb -1.1811921155368117 53.97761971086707
rclavicle -1.3938341443915834e-15 -1.847740559530107e-15
rhumerus -32.805208266466515 -22.655560440231056 -76.67916259277534
rradius 24.99974357344213
rwrist 2.2908604402564987
rhand -17.297328963765995 22.83369221613787
rfingers 7.125019999999999
rthumb 8.873506839016372 -6.839927226763821
